DBRep_DrawableShape

CASCADE Topology V1, (c) Matra-Datavision
Locations 22
1
              1               0               0               0 
              0               1               0             100 
              0               0               1               0 
2  1 -1 0
1
              1               0               0               0 
              0               1               0               0 
              0               0               1             100 
2  3 -1 0
1
              1               0               0               0 
              0               1               0               0 
              0               0               1             0.5 
2  5 -1 0
1
              1               0               0               0 
              0               1               0               0 
              0               0               1             0.5 
2  7 -1 0
1
              1               0               0              -0 
              0               1               0              -0 
              0               0               1            -0.5 
2  9 -1 0
1
              1               0               0              -0 
              0               1               0              -0 
              0               0               1            -0.1 
2  11 -1 0
1
              1               0               0              -0 
              0               1               0              -0 
              0               0               1            -0.1 
2  13 -1 0
1
              1               0               0              -0 
              0               1               0              -0 
              0               0               1            -0.1 
2  15 -1 0
2  15 -1 13 -1 0
1
              1               0               0              -0 
              0               1               0              -0 
              0               0               1            -0.1 
2  18 -1 0
1
              1               0               0              -0 
              0               1               0              -0 
              0               0               1            -0.1 
2  20 -1 0
2  20 -1 13 -1 0
Curve2ds 30
8 0 6.2831853071795862
7 0 0  2 7 4  0 0.029999999999999999  1.0471975511965972 0.029999999999999964  2.0943951023931953 0.029999999999999999  3.1415926535897931 0.029999999999999964  4.1887902047863905 0.029999999999999999  5.2359877559829835 0.029999999999999964  6.2831853071795862 0.029999999999999999 
 0 3 2.0943951023931953 2 4.1887902047863905 2 6.2831853071795862 3
8 0 6.2831853071795862
7 1 1  2 6 4  0.10000000000000001 0  1 0.10000000000000001 0.17320508075688767  0.50000000000000011 -0.049999999999999982 0.086602540378443879  1 -0.19999999999999996 2.4492935982947059e-17  0.50000000000000011 -0.050000000000000044 -0.086602540378443837  1 0.099999999999999853 -0.17320508075688779  0.50000000000000011
 0 2 2.0943951023931953 2 4.1887902047863905 2 6.2831853071795862 2
8 0 0.029999999999999999
7 0 0  2 3 2  6.2831853071795862 0  6.2831853071795845 0.014999999999999986  6.2831853071795862 0.029999999999999999 
 0 3 0.029999999999999999 3
8 0 0.029999999999999999
7 0 0  2 3 2  0 0  -1.7763568394002505e-15 0.014999999999999986  0 0.029999999999999999 
 0 3 0.029999999999999999 3
8 0 6.2831853071795862
7 0 0  2 7 4  0 0  1.0471975511965972 0  2.0943951023931953 0  3.1415926535897931 0  4.1887902047863905 0  5.2359877559829835 0  6.2831853071795862 0 
 0 3 2.0943951023931953 2 4.1887902047863905 2 6.2831853071795862 3
8 0 6.2831853071795862
7 1 1  2 6 4  0.10000000000000001 0  1 0.10000000000000001 0.17320508075688767  0.50000000000000011 -0.049999999999999982 0.086602540378443879  1 -0.19999999999999996 2.4492935982947059e-17  0.50000000000000011 -0.050000000000000044 -0.086602540378443837  1 0.099999999999999853 -0.17320508075688779  0.50000000000000011
 0 2 2.0943951023931953 2 4.1887902047863905 2 6.2831853071795862 2
1 0 0 1 0 
1 0 -100 1 0 
1 0 0 1 0 
1 0 -100 1 0 
1 0 0 1 0 
1 0 -0.5 1 0 
1 0 0 1 0 
1 0 -0.5 1 0 
1 0 0 1 0 
1 0 -0.5 1 0 
1 0 0 1 0 
1 0 -0.10000000000000001 1 0 
1 0 0 1 0 
1 0 -0.10000000000000001 1 0 
1 0 0 1 0 
1 0 -0.10000000000000001 1 0 
1 0 0 1 0 
1 0 -0.10000000000000001 1 0 
1 0 0 1 0 
1 0 -0.10000000000000001 1 0 
1 0 0 1 0 
1 0 -0.10000000000000001 1 0 
1 0 0 1 0 
1 0 -0.10000000000000001 1 0 
Curves 3
8 0 6.2831853071795862
7 1 1  2 6 4  0.15000000000000002 0 0.059999999999999998  1 0.15000000000000002 0.17320508075688767 0.059999999999999998  0.50000000000000011 -0.074999999999999969 0.086602540378443879 0.059999999999999998  1 -0.29999999999999993 2.4492935982947059e-17 0.059999999999999998  0.50000000000000011 -0.075000000000000067 -0.086602540378443837 0.059999999999999998  1 0.14999999999999977 -0.17320508075688779 0.059999999999999998  0.50000000000000011
 0 2 2.0943951023931953 2 4.1887902047863905 2 6.2831853071795862 2
8 0 0.029999999999999999
7 0 0  1 2 2  0.15000000000000002 -2.4492935982947065e-17 0  0.15000000000000002 -2.4492935982947065e-17 0.059999999999999998 
 0 2 0.029999999999999999 2
8 0 6.2831853071795862
7 1 1  2 6 4  0.15000000000000002 0 0  1 0.15000000000000002 0.17320508075688767 0  0.50000000000000011 -0.074999999999999969 0.086602540378443879 0  1 -0.29999999999999993 2.4492935982947059e-17 0  0.50000000000000011 -0.075000000000000067 -0.086602540378443837 0  1 0.14999999999999977 -0.17320508075688779 0  0.50000000000000011
 0 2 2.0943951023931953 2 4.1887902047863905 2 6.2831853071795862 2
Polygon3D 0
PolygonOnTriangulations 0
Surfaces 15
9 0 1 0 0 2 1 7 2 4 2 0.15000000000000002 0 0  1 0.15000000000000002 0 0.059999999999999998  1 
0.15000000000000002 0.1732050807568877 0  0.50000000000000011 0.15000000000000002 0.1732050807568877 0.059999999999999998  0.50000000000000011 
-0.074999999999999969 0.086602540378443879 0  1 -0.074999999999999969 0.086602540378443879 0.059999999999999998  1 
-0.29999999999999993 2.4492935982947059e-17 0  0.50000000000000011 -0.29999999999999993 2.4492935982947059e-17 0.059999999999999998  0.50000000000000011 
-0.075000000000000067 -0.086602540378443837 0  1 -0.075000000000000067 -0.086602540378443837 0.059999999999999998  1 
0.14999999999999974 -0.17320508075688779 0  0.50000000000000011 0.14999999999999974 -0.17320508075688779 0.059999999999999998  0.50000000000000011 
0.15000000000000002 -2.4492935982947065e-17 0  1 0.15000000000000002 -2.4492935982947065e-17 0.059999999999999998  1 

0 3
2.0943951023931953 2
4.1887902047863905 2
6.2831853071795862 3

0 2
0.029999999999999999 2

9 0 0 0 0 1 1 2 2 2 2 -0.15000000000000002 -0.10000000000000001 0.059999999999999998  -0.15000000000000002 0.10000000000000001 0.059999999999999998  
0.15000000000000002 -0.10000000000000001 0.059999999999999998  0.15000000000000002 0.10000000000000001 0.059999999999999998  

-0.10000000000000001 2
0.10000000000000001 2

-0.10000000000000001 2
0.10000000000000001 2

9 0 0 0 0 1 1 2 2 2 2 -0.15000000000000002 -0.10000000000000001 0  -0.15000000000000002 0.10000000000000001 0  
0.15000000000000002 -0.10000000000000001 0  0.15000000000000002 0.10000000000000001 0  

-0.10000000000000001 2
0.10000000000000001 2

-0.10000000000000001 2
0.10000000000000001 2

6 -0 -1 -0 
8 0 6.2831853071795862
7 1 1  2 6 4  0.15000000000000002 0 0  1 0.15000000000000002 0.17320508075688767 0  0.50000000000000011 -0.074999999999999969 0.086602540378443879 0  1 -0.29999999999999993 2.4492935982947059e-17 0  0.50000000000000011 -0.075000000000000067 -0.086602540378443837 0  1 0.14999999999999977 -0.17320508075688779 0  0.50000000000000011
 0 2 2.0943951023931953 2 4.1887902047863905 2 6.2831853071795862 2
6 -0 -0 -1 
8 0 6.2831853071795862
7 1 1  2 6 4  0.15000000000000002 0 0  1 0.15000000000000002 0.17320508075688767 0  0.50000000000000011 -0.074999999999999969 0.086602540378443879 0  1 -0.29999999999999993 2.4492935982947059e-17 0  0.50000000000000011 -0.075000000000000067 -0.086602540378443837 0  1 0.14999999999999977 -0.17320508075688779 0  0.50000000000000011
 0 2 2.0943951023931953 2 4.1887902047863905 2 6.2831853071795862 2
6 -0 -0 -1 
8 0 6.2831853071795862
7 1 1  2 6 4  0.15000000000000002 0 0  1 0.15000000000000002 0.17320508075688767 0  0.50000000000000011 -0.074999999999999969 0.086602540378443879 0  1 -0.29999999999999993 2.4492935982947059e-17 0  0.50000000000000011 -0.075000000000000067 -0.086602540378443837 0  1 0.14999999999999977 -0.17320508075688779 0  0.50000000000000011
 0 2 2.0943951023931953 2 4.1887902047863905 2 6.2831853071795862 2
6 -0 -0 -1 
8 0 6.2831853071795862
7 1 1  2 6 4  0.15000000000000002 0 0  1 0.15000000000000002 0.17320508075688767 0  0.50000000000000011 -0.074999999999999969 0.086602540378443879 0  1 -0.29999999999999993 2.4492935982947059e-17 0  0.50000000000000011 -0.075000000000000067 -0.086602540378443837 0  1 0.14999999999999977 -0.17320508075688779 0  0.50000000000000011
 0 2 2.0943951023931953 2 4.1887902047863905 2 6.2831853071795862 2
6 0 0 1 
8 0 6.2831853071795862
7 1 1  2 6 4  0.15000000000000002 0 0  1 0.15000000000000002 0.17320508075688767 0  0.50000000000000011 -0.074999999999999969 0.086602540378443879 0  1 -0.29999999999999993 2.4492935982947059e-17 0  0.50000000000000011 -0.075000000000000067 -0.086602540378443837 0  1 0.14999999999999977 -0.17320508075688779 0  0.50000000000000011
 0 2 2.0943951023931953 2 4.1887902047863905 2 6.2831853071795862 2
6 0 0 1 
8 0 6.2831853071795862
7 1 1  2 6 4  0.15000000000000002 0 0  1 0.15000000000000002 0.17320508075688767 0  0.50000000000000011 -0.074999999999999969 0.086602540378443879 0  1 -0.29999999999999993 2.4492935982947059e-17 0  0.50000000000000011 -0.075000000000000067 -0.086602540378443837 0  1 0.14999999999999977 -0.17320508075688779 0  0.50000000000000011
 0 2 2.0943951023931953 2 4.1887902047863905 2 6.2831853071795862 2
6 0 0 1 
8 0 6.2831853071795862
7 1 1  2 6 4  0.15000000000000002 0 0  1 0.15000000000000002 0.17320508075688767 0  0.50000000000000011 -0.074999999999999969 0.086602540378443879 0  1 -0.29999999999999993 2.4492935982947059e-17 0  0.50000000000000011 -0.075000000000000067 -0.086602540378443837 0  1 0.14999999999999977 -0.17320508075688779 0  0.50000000000000011
 0 2 2.0943951023931953 2 4.1887902047863905 2 6.2831853071795862 2
6 0 0 1 
8 0 6.2831853071795862
7 1 1  2 6 4  0.15000000000000002 0 0  1 0.15000000000000002 0.17320508075688767 0  0.50000000000000011 -0.074999999999999969 0.086602540378443879 0  1 -0.29999999999999993 2.4492935982947059e-17 0  0.50000000000000011 -0.075000000000000067 -0.086602540378443837 0  1 0.14999999999999977 -0.17320508075688779 0  0.50000000000000011
 0 2 2.0943951023931953 2 4.1887902047863905 2 6.2831853071795862 2
6 0 0 1 
8 0 6.2831853071795862
7 1 1  2 6 4  0.15000000000000002 0 -0.10000000000000001  1 0.15000000000000002 0.17320508075688767 -0.10000000000000001  0.50000000000000011 -0.074999999999999969 0.086602540378443879 -0.10000000000000001  1 -0.29999999999999993 2.4492935982947059e-17 -0.10000000000000001  0.50000000000000011 -0.075000000000000067 -0.086602540378443837 -0.10000000000000001  1 0.14999999999999977 -0.17320508075688779 -0.10000000000000001  0.50000000000000011
 0 2 2.0943951023931953 2 4.1887902047863905 2 6.2831853071795862 2
6 0 0 1 
8 0 6.2831853071795862
7 1 1  2 6 4  0.15000000000000002 0 0  1 0.15000000000000002 0.17320508075688767 0  0.50000000000000011 -0.074999999999999969 0.086602540378443879 0  1 -0.29999999999999993 2.4492935982947059e-17 0  0.50000000000000011 -0.075000000000000067 -0.086602540378443837 0  1 0.14999999999999977 -0.17320508075688779 0  0.50000000000000011
 0 2 2.0943951023931953 2 4.1887902047863905 2 6.2831853071795862 2
6 0 0 1 
8 0 6.2831853071795862
7 1 1  2 6 4  0.15000000000000002 0 0  1 0.15000000000000002 0.17320508075688767 0  0.50000000000000011 -0.074999999999999969 0.086602540378443879 0  1 -0.29999999999999993 2.4492935982947059e-17 0  0.50000000000000011 -0.075000000000000067 -0.086602540378443837 0  1 0.14999999999999977 -0.17320508075688779 0  0.50000000000000011
 0 2 2.0943951023931953 2 4.1887902047863905 2 6.2831853071795862 2
6 0 0 1 
8 0 6.2831853071795862
7 1 1  2 6 4  0.15000000000000002 0 -0.10000000000000001  1 0.15000000000000002 0.17320508075688767 -0.10000000000000001  0.50000000000000011 -0.074999999999999969 0.086602540378443879 -0.10000000000000001  1 -0.29999999999999993 2.4492935982947059e-17 -0.10000000000000001  0.50000000000000011 -0.075000000000000067 -0.086602540378443837 -0.10000000000000001  1 0.14999999999999977 -0.17320508075688779 -0.10000000000000001  0.50000000000000011
 0 2 2.0943951023931953 2 4.1887902047863905 2 6.2831853071795862 2
Triangulations 0

TShapes 13
Ve
2e-07
0.15 -2.44929359829471e-17 0.06
0 0

0101101
*
Ed
 2e-07 1 1 0
1  1 0 0 6.28318530717959
2  1 1 0 0 6.28318530717959
2  2 2 0 0 6.28318530717959
0

0101000
+13 0 -13 0 *
Ve
2e-07
0.15 -2.44929359829471e-17 0
0 0

0101101
*
Ed
 2e-07 1 1 0
1  2 0 0 0.03
3  3 4CN 1 0 0 0.03
0

0101000
-13 0 +11 0 *
Ed
 2e-07 1 1 0
1  3 0 0 6.28318530717959
2  5 1 0 0 6.28318530717959
2  6 3 0 0 6.28318530717959
2  7 4 0 0 6.28318530717959
2  8 4 2 0 6.28318530717959
2  9 5 0 0 6.28318530717959
2  10 5 4 0 6.28318530717959
2  11 6 0 0 6.28318530717959
2  12 6 6 0 6.28318530717959
2  13 7 0 0 6.28318530717959
2  14 7 8 0 6.28318530717959
2  15 8 0 0 6.28318530717959
2  16 8 10 0 6.28318530717959
2  17 9 0 0 6.28318530717959
2  18 9 12 0 6.28318530717959
2  19 10 0 0 6.28318530717959
2  20 10 14 0 6.28318530717959
2  21 11 0 0 6.28318530717959
2  22 11 16 0 6.28318530717959
2  23 12 14 0 6.28318530717959
2  24 12 17 0 6.28318530717959
2  25 13 0 0 6.28318530717959
2  26 13 19 0 6.28318530717959
2  27 14 0 0 6.28318530717959
2  28 14 21 0 6.28318530717959
2  29 15 14 0 6.28318530717959
2  30 15 22 0 6.28318530717959
0

0101000
+11 0 -11 0 *
Wi

0101100
-12 0 +10 0 +9 0 -10 0 *
Fa
0  2e-07 1 0

0111000
+8 0 *
Wi

0101100
+12 0 *
Fa
0  2e-07 2 0

0111000
+6 0 *
Wi

0101100
-9 0 *
Fa
0  2e-07 3 0

0111000
-4 0 *
Sh

0101100
+7 0 +5 0 -3 0 *
So

1100000
+2 0 *

+1 0 